<svg width="249" height="36" viewBox="0 0 249 36" fill="none" xmlns="http://www.w3.org/2000/svg">
<path d="M0.106659 2.30873V4.39783H88.1516H176.197V2.30873V0.219626H88.1516H0.106659V2.30873Z" fill="white"/>
<path d="M93.4017 8.70318C89.7866 9.02412 87.3826 11.0829 86.4925 14.6193C85.9414 16.7992 85.9838 19.6937 86.5894 21.7464C87.3887 24.4471 89.2174 26.1124 92.021 26.6816C94.97 27.275 97.81 26.5907 99.5418 24.8589C100.595 23.8053 101.371 22.2611 101.673 20.608L101.764 20.1418H99.4812H97.2044L97.0591 20.7655C96.6594 22.4367 95.9752 23.0362 94.3584 23.1452C92.7174 23.2542 91.5366 22.3278 91.0643 20.5656C90.8463 19.7421 90.7857 19.185 90.7918 17.871C90.7918 14.7949 91.476 13.2568 93.0928 12.6876C93.553 12.5241 94.4916 12.4696 94.9397 12.5726C96.0297 12.8269 96.8108 13.6565 97.1015 14.8736L97.2044 15.2975L97.8402 15.2914C98.8575 15.2854 101.837 15.1945 101.861 15.1703C101.873 15.1582 101.849 14.8857 101.8 14.5769C101.249 10.8892 99.1542 9.01806 95.2122 8.69713C94.3584 8.63052 94.1888 8.63052 93.4017 8.70318Z" fill="white"/>
<path d="M6.55563 8.82428C2.95269 9.13916 0.954421 10.9921 0.615321 14.3407L0.572933 14.7525H2.72864H4.8783L5.07207 14.1833C5.47778 12.9601 5.99248 12.5181 7.22172 12.3303C7.50633 12.288 7.88176 12.2758 8.15425 12.3001C9.66203 12.4333 10.3221 12.7845 10.5522 13.5535C10.7883 14.3649 10.528 15.025 9.81342 15.4065C9.29871 15.679 8.68712 15.8243 7.61532 15.9333C4.00027 16.2966 2.38954 16.8416 1.22691 18.095C0.784871 18.5734 0.373106 19.3424 0.203556 19.9904C0.0279505 20.6565 -0.0447138 21.698 0.0279506 22.4246C0.306497 25.0466 1.91117 26.5847 4.67847 26.8632C6.63435 27.063 8.62051 26.3364 10.1889 24.8528C10.4735 24.5864 10.7217 24.3745 10.7338 24.3926C10.752 24.4108 10.8065 24.7257 10.8549 25.095C10.9034 25.4584 10.97 25.8883 11.0124 26.0397L11.079 26.3182H13.5556H16.0323V25.9973C16.0323 25.6824 16.0262 25.6703 15.7053 25.3918C15.5236 25.2343 15.3177 24.986 15.239 24.8226L15.0937 24.5319L15.0634 18.5976C15.021 12.0033 15.0513 12.4151 14.6093 11.5492C13.9432 10.2412 12.4414 9.33294 10.3402 8.97567C9.15944 8.77584 7.77882 8.72134 6.55563 8.82428ZM10.7641 18.7611C10.7641 21.7343 10.0617 22.8182 7.75459 23.4238C5.87138 23.9203 4.8238 23.3995 4.58764 21.8554C4.46653 21.0743 4.67847 20.4203 5.21134 19.9238C5.69577 19.4636 6.38608 19.2092 7.99681 18.8762C9.37138 18.5916 9.85581 18.4523 10.2797 18.2404C10.4977 18.1314 10.6914 18.0345 10.7217 18.0345C10.7459 18.0284 10.7641 18.3554 10.7641 18.7611Z" fill="white"/>
<path d="M27.2408 8.83035C26.611 8.90907 25.7996 9.18156 25.2788 9.49038C24.7217 9.82343 24.0193 10.5259 23.5954 11.1738L23.2684 11.6824L23.2503 10.4592L23.2382 9.24211H21.0885H18.9389V17.8407V26.4393H21.2096H23.4804V20.82C23.4864 15.2369 23.5046 14.589 23.6984 14.0137C23.9103 13.3658 24.5643 12.9056 25.515 12.7239C27.2831 12.3848 28.3852 12.9722 28.7788 14.48C28.8636 14.8009 28.8757 15.5518 28.8697 20.6444L28.8636 26.4393H31.1344H33.4051L33.4293 21.0925C33.4475 15.8122 33.4475 15.7456 33.5807 15.1521C33.8472 14.0016 34.2831 13.3658 35.0582 12.9964C36.2027 12.4515 37.2321 12.5544 38.0193 13.281C38.4311 13.6625 38.637 13.9835 38.8247 14.5284C38.9458 14.8978 38.9518 14.9826 38.97 20.6686L38.9882 26.4393H41.2529H43.5236V20.3053C43.5236 16.4662 43.4994 13.9835 43.4631 13.6625C43.1966 11.5008 42.1248 9.98692 40.3567 9.27239C38.528 8.53969 36.4812 8.6608 34.8584 9.60543C34.2953 9.93848 33.5202 10.6833 33.169 11.2283C33.0176 11.4644 32.8783 11.6582 32.8601 11.6582C32.8359 11.6643 32.7814 11.5734 32.739 11.4644C32.5755 11.0769 31.9458 10.211 31.5764 9.87793C30.6015 8.99384 29.0089 8.6063 27.2408 8.83035Z" fill="white"/>
<path d="M53.515 8.79401C51.2866 8.99384 49.3489 9.94453 48.1742 11.422C46.842 13.0812 46.2304 15.0976 46.2243 17.8407C46.2243 19.4696 46.3878 20.5777 46.8056 21.7767C47.1871 22.8606 47.6837 23.6841 48.4224 24.4592C49.4821 25.5734 50.8506 26.3182 52.4916 26.6694C56.8818 27.6201 61.0721 25.4705 62.1075 21.7283L62.2287 21.2923H59.9458L57.6629 21.2983L57.5176 21.6132C57.3238 22.031 56.6698 22.6668 56.2278 22.8848C55.1681 23.3935 53.9146 23.3995 52.8852 22.9091C51.6378 22.3156 50.8506 20.9956 50.778 19.3848L50.7598 18.961L56.5608 18.9428L62.3558 18.9307V18.6098C62.3558 18.4402 62.3255 17.8589 62.2953 17.326C62.1075 14.3589 61.3264 12.2153 59.9034 10.7862C58.9043 9.78103 57.6326 9.16944 56.034 8.90906C55.483 8.81823 53.9934 8.75162 53.515 8.79401ZM55.1802 12.4817C55.6767 12.6089 56.2338 12.8874 56.5972 13.1963C57.2935 13.7715 57.7961 14.7222 57.8567 15.5821L57.893 16.0241H54.4293H50.9717L51.0081 15.7637C51.2139 14.2257 51.7832 13.2326 52.7278 12.7542C53.4181 12.403 54.4354 12.294 55.1802 12.4817Z" fill="white"/>
<path d="M73.5401 8.85457C72.5894 9.02412 71.7901 9.44194 71.0816 10.1383C70.7001 10.5198 70.0825 11.3191 69.8221 11.7854C69.7312 11.9549 69.6344 12.0881 69.6101 12.0881C69.5799 12.0881 69.5617 11.422 69.5617 10.6046V9.12101H67.4726H65.3835V17.7196V26.3182H67.5937H69.8039V22.0916C69.8039 17.7257 69.8402 16.8658 70.0522 16.0302C70.4034 14.6496 71.1906 13.7957 72.4501 13.4445C72.7044 13.3719 73.1404 13.3355 74.0608 13.3174L75.3143 13.2871V11.0224V8.75768L74.6664 8.76374C74.303 8.76374 73.8004 8.80613 73.5401 8.85457Z" fill="white"/>
<path d="M110.478 8.81824C106.899 9.13917 104.967 10.7015 104.374 13.7413C104.313 14.0682 104.259 14.4255 104.259 14.5406V14.7525H106.463H108.667L108.77 14.3105C109.085 13.0086 109.618 12.5181 110.914 12.3303C111.459 12.2456 112.343 12.3122 112.973 12.4817C113.693 12.6695 114.141 13.1115 114.256 13.7473C114.402 14.5466 114.117 15.0855 113.336 15.4852C112.864 15.7214 112.428 15.8122 111.138 15.9636C109.297 16.1695 108.213 16.3996 107.196 16.7871C105.416 17.4774 104.416 18.531 103.974 20.1902C103.835 20.711 103.817 20.8987 103.811 21.807C103.811 22.6911 103.829 22.9091 103.95 23.3511C104.501 25.4281 106.051 26.6028 108.558 26.8572C110.514 27.0509 112.276 26.3788 114.057 24.7681C114.299 24.5501 114.511 24.3745 114.523 24.3866C114.535 24.3987 114.571 24.6409 114.608 24.9255C114.644 25.2101 114.717 25.64 114.771 25.8762L114.862 26.3182H117.314H119.761V25.9791C119.761 25.6461 119.755 25.634 119.458 25.3675C119.288 25.2162 119.089 24.98 119.016 24.8407L118.883 24.5925L118.846 18.7188C118.81 12.3667 118.828 12.6695 118.489 11.8762C117.823 10.32 116.115 9.2845 113.614 8.90907C112.821 8.79402 111.277 8.74557 110.478 8.81824ZM114.341 18.6703C114.499 20.9714 113.917 22.3156 112.47 23.0181C110.986 23.7387 109.666 23.7932 108.909 23.1695C108.413 22.7577 108.104 21.6859 108.249 20.8926C108.473 19.6573 109.236 19.1547 111.223 18.9307C112.282 18.8096 113.554 18.4584 114.038 18.1496C114.141 18.0829 114.238 18.0284 114.262 18.0284C114.281 18.0224 114.317 18.3131 114.341 18.6703Z" fill="white"/>
<path d="M131.538 8.81824C129.794 9.04229 128.511 9.82948 127.548 11.2646L127.269 11.6885V10.4653V9.24211H125.059H122.849V17.8407V26.4393H125.12H127.384L127.403 21.1227L127.427 15.8122L127.584 15.2188C127.887 14.1167 128.377 13.384 129.098 12.9541C129.54 12.6876 130.249 12.512 130.896 12.512C132.386 12.5181 133.27 13.1297 133.597 14.3892C133.694 14.7464 133.7 15.3217 133.694 20.608L133.682 26.4393H135.989H138.296L138.272 20.0933C138.254 14.5103 138.242 13.6867 138.151 13.2023C137.685 10.647 136.383 9.339 133.87 8.91512C133.185 8.80007 132.065 8.75163 131.538 8.81824Z" fill="white"/>
<path d="M147.918 8.81824C147.119 8.89091 146.204 9.08468 145.52 9.33295C143.837 9.93243 142.741 11.0648 142.172 12.7845C142.008 13.2932 141.802 14.2923 141.802 14.6132V14.7525H143.946H146.095L146.162 14.4013C146.283 13.82 146.459 13.4385 146.749 13.1175C147.27 12.5362 147.967 12.3001 149.129 12.3122C151.006 12.3243 151.812 12.8027 151.951 13.9774C152.102 15.2793 151.006 15.8849 148.1 16.115C147.125 16.1937 145.514 16.5691 144.497 16.9567C142.832 17.5925 141.881 18.6885 141.487 20.4022C141.306 21.2015 141.306 22.6366 141.487 23.3208C142.238 26.1063 145.042 27.5656 148.16 26.7966C149.329 26.506 150.377 25.9004 151.358 24.9558C151.678 24.6409 151.951 24.3926 151.957 24.4047C151.963 24.4108 152.012 24.6954 152.066 25.0345C152.114 25.3736 152.217 25.8278 152.284 26.0458L152.417 26.4394H154.827H157.243V26.1184C157.243 25.8278 157.219 25.7793 157.025 25.5855C156.813 25.3797 156.626 25.0708 156.499 24.7136C156.45 24.5925 156.42 22.679 156.396 18.8096C156.359 13.1478 156.359 13.0812 156.226 12.6028C156.153 12.3364 155.978 11.8883 155.845 11.6037C155.639 11.1798 155.493 10.9921 155.033 10.5319C154.537 10.0414 154.403 9.94454 153.786 9.64177C152.617 9.07257 151.473 8.84246 149.583 8.79402C148.984 8.77585 148.233 8.78797 147.918 8.81824ZM151.975 18.3191C151.975 18.9125 151.848 20.1842 151.733 20.717C151.576 21.4376 151.2 22.1945 150.8 22.6003C150.08 23.3208 148.53 23.7689 147.5 23.557C146.907 23.4359 146.537 23.2421 146.229 22.8909C145.902 22.5155 145.775 22.0916 145.775 21.3831C145.775 20.929 145.799 20.7836 145.926 20.5051C146.35 19.5907 147.101 19.185 148.814 18.9368C150.062 18.7551 151.152 18.4463 151.733 18.1132C151.957 17.9861 151.975 17.9982 151.975 18.3191Z" fill="white"/>
<path d="M166.024 8.79401C164.813 8.90907 163.928 9.10889 163.129 9.44799C160.931 10.3684 159.72 12.2395 159.708 14.6919C159.702 16.4056 160.428 17.5622 162.045 18.416C162.875 18.852 164.013 19.2092 166.538 19.8148C168.682 20.3295 169.263 20.5172 169.675 20.8321C170.081 21.1409 170.202 21.3649 170.202 21.8191C170.202 22.6245 169.699 23.1271 168.646 23.3935C168.076 23.5388 166.411 23.5328 165.824 23.3935C164.679 23.1149 164.037 22.4489 163.838 21.3407L163.765 20.929H161.5H159.242V21.2136C159.242 21.6677 159.411 22.5336 159.605 23.0605C160.628 25.8641 163.505 27.2084 167.986 26.9783C171.189 26.8148 173.163 25.7914 174.144 23.7992C174.671 22.7153 174.877 21.2136 174.634 20.1902C174.198 18.3978 172.945 17.217 170.595 16.3874C170.299 16.2845 169.082 15.9515 167.901 15.6547C165.473 15.0431 165.279 14.9826 164.813 14.7525C164.237 14.4618 164.025 14.147 164.025 13.5959C164.025 13.2568 164.116 13.0388 164.371 12.8027C165.103 12.1002 167.471 11.9246 168.615 12.4878C168.797 12.5786 169.057 12.7603 169.185 12.8874C169.463 13.166 169.754 13.7473 169.814 14.1288L169.851 14.3892H172.085H174.319L174.295 14.2499C174.277 14.1772 174.247 13.9532 174.229 13.7594C174.138 12.948 173.781 11.9549 173.345 11.3191C172.333 9.84765 170.595 9.03017 167.992 8.81824C167.259 8.76374 166.502 8.75163 166.024 8.79401Z" fill="white"/>
<path d="M192.098 8.81824C190.197 9.03623 188.743 9.69626 187.575 10.871C186.364 12.0821 185.613 13.6867 185.243 15.8425C185.116 16.6175 185.062 18.8338 185.153 19.6634C185.522 22.897 186.812 25.0527 189.064 26.185C190.257 26.7845 192.165 27.0994 193.872 26.9783C197.051 26.7542 199.346 25.0466 200.303 22.2006C200.485 21.6495 200.721 20.6504 200.721 20.3961V20.2629H198.462H196.197L196.034 20.8805C195.622 22.461 195.011 23.0786 193.709 23.2421C192.165 23.4419 190.996 22.8243 190.342 21.4618C189.9 20.5354 189.809 20.0812 189.779 18.5795C189.742 17.1141 189.815 16.2542 190.033 15.3762C190.499 13.5354 191.565 12.6392 193.273 12.6331C194.817 12.6331 195.768 13.4143 196.101 14.9584L196.204 15.4307L197.899 15.3944C198.838 15.3701 199.885 15.3399 200.23 15.3217L200.854 15.2854L200.812 14.8978C200.751 14.3286 200.515 13.3476 200.303 12.7482C199.522 10.6106 197.76 9.30266 195.138 8.91512C194.351 8.79401 192.734 8.74557 192.098 8.81824Z" fill="white"/>
<path d="M210.5 8.8243C208.484 9.01807 206.861 9.72049 205.577 10.9679C204.045 12.4394 203.131 14.589 202.901 17.2473C202.792 18.5371 202.986 20.1842 203.391 21.4255C204.493 24.8105 207.103 26.7482 210.864 26.9783C216.271 27.3053 219.68 24.3563 220.219 18.8762C220.298 18.0769 220.298 17.4411 220.213 16.7023C219.85 13.3598 218.36 10.9255 215.92 9.69627C214.436 8.95146 212.486 8.63658 210.5 8.8243ZM212.62 12.6028C213.843 12.8572 214.781 13.7473 215.217 15.0613C215.684 16.4541 215.732 18.5129 215.345 20.0691C215.114 20.9835 214.721 21.7101 214.17 22.2672C213.413 23.0241 212.511 23.3451 211.348 23.2724C210.155 23.1937 209.235 22.7274 208.611 21.8736C207.878 20.8805 207.551 19.6513 207.545 17.9013C207.545 16.8295 207.648 16.115 207.933 15.2672C208.411 13.8442 209.392 12.8753 210.652 12.6089C211.172 12.4938 212.093 12.4938 212.62 12.6028Z" fill="white"/>
<path d="M231.803 8.9454C230.223 9.15128 229.024 9.93848 228.037 11.416L227.819 11.743L227.8 10.5561L227.788 9.36322H225.608H223.428V17.9013V26.4393H225.693H227.958L227.988 20.7291C228.006 15.8182 228.025 14.9705 228.109 14.6253C228.424 13.281 229.314 12.7058 230.998 12.7663C231.531 12.7906 231.773 12.8269 232.039 12.9298C232.475 13.0994 232.893 13.499 233.099 13.9411C233.408 14.6193 233.414 14.7646 233.42 20.82V26.4393H235.691H237.955L237.973 20.8805L237.998 15.3278L238.131 14.8736C238.603 13.3416 239.475 12.6997 241.013 12.7663C242.249 12.8208 242.921 13.3174 243.314 14.4679C243.441 14.8373 243.441 14.9039 243.46 20.6444L243.478 26.4393H245.742H248.013V20.5111C248.013 16.8416 247.989 14.3528 247.953 13.9714C247.68 11.3433 246.366 9.68415 244.083 9.07862C243.581 8.9454 243.375 8.92118 242.563 8.92118C241.225 8.92118 240.383 9.12706 239.451 9.6781C238.936 9.98087 238.185 10.6893 237.768 11.2646C237.598 11.5008 237.435 11.7188 237.41 11.749C237.386 11.7793 237.277 11.6279 237.174 11.416C236.363 9.79921 235.424 9.14523 233.632 8.93934C233.008 8.87274 232.348 8.87274 231.803 8.9454Z" fill="white"/>
<path d="M78.0392 17.7196V26.3182H80.31H82.5807V17.7196V9.121H80.31H78.0392V17.7196Z" fill="white"/>
<path d="M179.654 21.262C178.589 21.5648 177.807 22.4852 177.729 23.5449C177.644 24.6591 178.28 25.7188 179.327 26.2153C179.691 26.3848 179.794 26.4091 180.254 26.403C180.938 26.397 181.344 26.2395 181.828 25.7914C182.924 24.7802 183.015 23.0544 182.034 21.9644C181.465 21.3347 180.46 21.038 179.654 21.262Z" fill="white"/>
<path d="M0.106293 33.1305V35.2196H88.1513H176.196V33.1305V31.0414H88.1513H0.106293V33.1305Z" fill="white"/>
</svg>
